<?xml version="1.0" encoding="UTF-8"?>
<svg version="1.1" xmlns="http://www.w3.org/2000/svg" width="32" height="32">
<path d="M0 0 C10.56 0 21.12 0 32 0 C32 10.56 32 21.12 32 32 C21.44 32 10.88 32 0 32 C0 21.44 0 10.88 0 0 Z " fill="#A4A48C" transform="translate(0,0)"/>
<path d="M0 0 C2.4375 0.8125 2.4375 0.8125 5 2 C5.33 2.99 5.66 3.98 6 5 C6.66 5 7.32 5 8 5 C8 5.99 8 6.98 8 8 C4.98968256 8.93423645 4.13349732 9.04449911 1 8 C0.401875 8.165 -0.19625 8.33 -0.8125 8.5 C-3.73260916 9.16745352 -6.09429997 8.59434773 -9 8 C-9.33 7.01 -9.66 6.02 -10 5 C-5.25 4 -5.25 4 -3 4 C-1.36323743 2.0399719 -1.36323743 2.0399719 0 0 Z " fill="#91957D" transform="translate(15,12)"/>
<path d="M0 0 C0 0.66 0 1.32 0 2 C-0.556875 1.814375 -1.11375 1.62875 -1.6875 1.4375 C-4.43512647 0.91767878 -6.27571565 1.41622478 -9 2 C-10.9996441 2.03772913 -13.00054061 2.04649906 -15 2 C-15 1.34 -15 0.68 -15 0 C-14.34 0 -13.68 0 -13 0 C-12.67 -0.99 -12.34 -1.98 -12 -3 C-6.80672773 -4.88846264 -4.34548799 -2.81178634 0 0 Z " fill="#AAAA94" transform="translate(23,23)"/>
<path d="M0 0 C2.475 0.99 2.475 0.99 5 2 C4.67 2.66 4.34 3.32 4 4 C1.03 3.505 1.03 3.505 -2 3 C-1.34 2.01 -0.68 1.02 0 0 Z " fill="#818871" transform="translate(15,12)"/>
</svg>
